<?xml version="1.0" encoding="utf-8"?>
<!-- Generator: Adobe Illustrator 16.0.3, SVG Export Plug-In . SVG Version: 6.00 Build 0)  -->
<!DOCTYPE svg PUBLIC "-//W3C//DTD SVG 1.1//EN" "http://www.w3.org/Graphics/SVG/1.1/DTD/svg11.dtd">
<svg version="1.1" id="Ebene_1" xmlns="http://www.w3.org/2000/svg" xmlns:xlink="http://www.w3.org/1999/xlink" x="0px" y="0px"
	 width="194px" height="58px" viewBox="0 0 194 58" enable-background="new 0 0 194 58" xml:space="preserve">
<g>
	<g>
		<path fill="#BA2429" d="M58.367,44.383c-1.129-7.27-10.929-11.992-21.355-16.065v5.777h3.047v3.424h-3.047v7.526
			c0,1.521-0.067,3.29,0.334,3.714c0.194,0.205,0.596,0.353,0.889,0.353c0.407,0,0.998-0.156,1.771-0.474l0.379,3.306
			c-1.033,0.492-2.206,0.74-3.514,0.74c-0.802,0-1.526-0.15-2.17-0.449c-0.646-0.299-1.118-0.686-1.42-1.16
			c-0.3-0.475-0.508-1.117-0.625-1.928c-0.095-0.575-0.142-1.736-0.142-3.481v-8.146h-2.067v-3.424h2.067v-4.232l3.19-2.051
			C21.017,22.163,5.759,17.635,12.171,8.979c6.212-5.391,28.856-4.644,46.195-4.365C58.722,1.065,57.122,0.18,51.961,0H6.407
			C2.869,0,0,2.825,0,6.309v44.862c0,2.532,1.518,4.72,3.708,5.721c0.012,0.006,0.022,0.01,0.033,0.015L3.735,34.078h3.917v2.581
			c0,0,1.227-2.765,5.522-2.975c0,0,5.277-0.211,6.282,6.306c0,0,1.097,6.419-1.658,10.157c0,0-1.587,2.685-4.553,2.542
			c0,0-3.256,0.19-5.061-2.506l-0.099,7.293h37.273c6.153-0.799,12.165-2.841,13.01-10.201c0,0,0.103-0.502,0.122-1.435
			C58.504,44.972,58.367,44.383,58.367,44.383z M25.379,27.005c1.215,0,2.201,1.039,2.201,2.322c0,1.281-0.986,2.32-2.201,2.32
			c-1.216,0-2.203-1.039-2.203-2.32C23.176,28.044,24.164,27.005,25.379,27.005z M27.638,52.276h-4.5V34.095h4.5V52.276z"/>
		<g>
			<g>
				<path fill="#B92227" d="M11.774,37.664c-1.701-0.033-3.767,0.799-3.837,5.772c-0.067,4.771,2.335,5.772,3.736,5.772
					c1.435,0,3.571-1.401,3.571-5.738C15.245,39.302,13.476,37.699,11.774,37.664z"/>
			</g>
		</g>
		<path fill="#B92227" d="M58.43,19.077V8.56C31.203,7.221,36.338,17.562,58.43,19.077z"/>
	</g>
	<g>
		<path fill="#231F20" d="M72.058,20.564h6.159c3.125,0,4.348,1.902,4.348,4.891c0,1.857-0.544,4.801-4.552,4.801h-2.536v6.656
			h-3.419V20.564z M75.477,27.743h1.902c1.02,0,1.721-1.11,1.721-2.197c0-1.335-0.362-2.468-1.903-2.468h-1.72V27.743z"/>
		<path fill="#231F20" d="M84.625,36.912V20.564h3.419v16.348H84.625z"/>
		<path fill="#231F20" d="M100.656,20.564v2.717h-3.805v13.631h-3.419V23.281h-3.805v-2.717H100.656z"/>
		<path fill="#231F20" d="M111.705,37.184c-4.234,0-5.026-2.49-4.846-5.32h3.42c0,1.563,0.067,2.876,1.948,2.876
			c1.153,0,1.72-0.748,1.72-1.857c0-2.943-6.884-3.125-6.884-7.992c0-2.559,1.223-4.597,5.389-4.597
			c3.328,0,4.982,1.495,4.755,4.913h-3.329c0-1.222-0.203-2.467-1.584-2.467c-1.108,0-1.766,0.611-1.766,1.743
			c0,3.102,6.883,2.83,6.883,7.972C117.411,36.687,114.31,37.184,111.705,37.184z"/>
		<path fill="#231F20" d="M119.427,31.049c0-3.125,0.452-5.797,4.664-5.797s4.664,2.672,4.664,5.797c0,3.576-0.542,6.09-4.664,6.09
			C119.97,37.139,119.427,34.625,119.427,31.049z M125.563,30.867c0-2.378-0.114-3.577-1.473-3.577s-1.472,1.199-1.472,3.577
			c0,3.487,0.295,4.234,1.472,4.234C125.269,35.102,125.563,34.354,125.563,30.867z"/>
		<path fill="#231F20" d="M134.484,20.564v16.348h-3.191V20.564H134.484z"/>
		<path fill="#231F20" d="M142.907,35.758h-0.044c-0.317,0.498-0.68,0.861-1.132,1.065c-0.454,0.225-0.951,0.315-1.563,0.315
			c-1.517,0-2.853-0.905-2.853-2.49v-9.17h3.192v7.925c0,1.019,0.182,1.766,1.201,1.766c1.019,0,1.198-0.747,1.198-1.766v-7.925
			h3.193v9.17c0,0.747,0.046,1.518,0.113,2.264h-3.307V35.758z"/>
		<path fill="#231F20" d="M147.347,25.478h1.291v-1.812l3.192-1.426v3.238h1.653v1.969h-1.653v6.115
			c0,0.859-0.023,1.426,1.019,1.426c0.203,0,0.409,0,0.565-0.045v1.969c-0.429,0.046-0.882,0.114-1.652,0.114
			c-2.762,0-3.124-1.834-3.124-2.537v-7.042h-1.291V25.478z"/>
		<path fill="#231F20" d="M158.397,20.564v2.514h-3.192v-2.514H158.397z M158.397,36.912h-3.192V25.478h3.192V36.912z"/>
		<path fill="#231F20" d="M160.956,31.049c0-3.125,0.452-5.797,4.665-5.797c4.21,0,4.665,2.672,4.665,5.797
			c0,3.576-0.545,6.09-4.665,6.09C161.5,37.139,160.956,34.625,160.956,31.049z M167.092,30.867c0-2.378-0.113-3.577-1.471-3.577
			c-1.359,0-1.472,1.199-1.472,3.577c0,3.487,0.294,4.234,1.472,4.234C166.797,35.102,167.092,34.354,167.092,30.867z"/>
		<path fill="#231F20" d="M175.741,26.632h0.047c0.315-0.521,0.701-0.859,1.131-1.064c0.453-0.226,0.973-0.316,1.563-0.316
			c1.517,0,2.853,0.905,2.853,2.491v9.169h-3.192v-7.879c0-1.019-0.182-1.812-1.201-1.812c-1.018,0-1.2,0.793-1.2,1.812v7.879
			h-3.191V25.478h3.191V26.632z"/>
		<path fill="#231F20" d="M186.385,33.244c-0.022,0.521,0,1.019,0.157,1.381c0.182,0.363,0.521,0.544,1.155,0.544
			c0.634,0,1.178-0.407,1.178-1.178c0-2.422-5.615-1.88-5.615-5.524c0-2.468,2.445-3.215,4.505-3.215
			c2.175,0,4.146,1.042,3.963,3.509h-3.125c0-0.793-0.09-1.268-0.315-1.471c-0.205-0.205-0.477-0.249-0.816-0.249
			c-0.701,0-1.086,0.452-1.086,1.222c0,1.812,5.614,1.721,5.614,5.388c0,1.993-1.63,3.487-4.279,3.487
			c-2.785,0-4.641-0.701-4.46-3.895H186.385z"/>
	</g>
	<g>
		<g>
			<path fill="#4E4E4E" d="M73.163,54.102v0.254c0,1.185,0.75,1.56,1.463,1.56c0.885,0,1.562-0.375,1.562-1.414
				c0-1.935-3.921-1.719-3.921-4.345c0-1.548,1.102-2.371,2.565-2.371c1.598,0,2.492,0.774,2.42,2.553H76.09
				c0.012-0.955-0.29-1.584-1.342-1.584c-0.666,0-1.343,0.338-1.343,1.28c0,1.927,3.919,1.646,3.919,4.418
				c0,1.839-1.271,2.432-2.71,2.432c-2.578,0.025-2.578-1.948-2.554-2.782H73.163z"/>
			<path fill="#4E4E4E" d="M78.752,53.738c0-1.791,0.206-3.267,2.324-3.267c2.117,0,2.323,1.476,2.323,3.267
				c0,2.699-1.028,3.085-2.323,3.085C79.781,56.823,78.752,56.438,78.752,53.738z M82.358,53.315c0-1.671-0.521-2.034-1.282-2.034
				c-0.763,0-1.283,0.363-1.283,2.034c0,1.983,0.254,2.697,1.283,2.697S82.358,55.299,82.358,53.315z"/>
			<path fill="#4E4E4E" d="M85.153,50.593v-1.186c0-1.234,0.871-1.476,1.754-1.476c0.206,0,0.326,0.012,0.471,0.035v0.714
				c-1.052-0.072-1.234,0.375-1.234,0.871v1.041h1.234v0.75h-1.234v5.36h-0.991v-5.36h-0.944v-0.75H85.153z"/>
			<path fill="#4E4E4E" d="M88.444,50.593v-1.174l0.991-0.446v1.62h1.333v0.75h-1.333v3.738c0,0.388,0,0.884,0.909,0.884
				c0.072,0,0.229-0.025,0.447-0.05v0.764c-0.327,0.024-0.653,0.096-0.98,0.096c-0.943,0-1.367-0.388-1.367-1.088v-4.344h-1.004
				v-0.75H88.444z"/>
			<path fill="#4E4E4E" d="M90.937,50.593h1.101l1.101,5.264h0.023l1.355-5.264h1.404l1.247,5.264h0.023l1.211-5.264h1.053
				l-1.635,6.11h-1.33l-1.307-5.202h-0.026l-1.366,5.202h-1.331L90.937,50.593z"/>
			<path fill="#4E4E4E" d="M103.581,55.82h-0.024c-0.304,0.7-0.775,1.003-1.537,1.003c-1.295,0-1.67-0.833-1.67-2.008
				c0-1.852,1.815-1.937,3.207-1.9c0.024-0.81,0.036-1.693-1.028-1.693c-0.665,0-1.017,0.447-0.957,1.088h-1.077
				c0.049-1.366,0.775-1.838,2.07-1.838c1.572,0,1.984,0.81,1.984,1.838v2.941c0,0.483,0.047,0.979,0.12,1.452h-1.088V55.82z
				 M101.342,54.888c0,0.593,0.291,1.125,0.956,1.125c0.605,0,1.354-0.375,1.259-2.347
				C102.612,53.679,101.342,53.593,101.342,54.888z"/>
			<path fill="#4E4E4E" d="M107.512,51.512h0.026c0.41-0.932,0.918-1.04,1.886-1.04v1.029c-0.083-0.015-0.181-0.026-0.266-0.038
				s-0.169-0.023-0.266-0.023c-1.102,0-1.381,0.835-1.381,1.657v3.606h-0.99v-6.11h0.99V51.512z"/>
			<path fill="#4E4E4E" d="M111.481,53.968c0,1.706,0.46,2.045,1.234,2.045c0.676,0,1.028-0.544,1.063-1.161h1.089
				c-0.012,1.355-0.845,1.972-2.129,1.972c-1.295,0-2.321-0.386-2.321-3.085c0-1.791,0.204-3.267,2.321-3.267
				c1.743,0,2.178,0.956,2.178,2.977v0.52H111.481z M113.864,53.219c0-1.779-0.495-1.997-1.222-1.997
				c-0.629,0-1.15,0.303-1.161,1.997H113.864z"/>
			<path fill="#4E4E4E" d="M126.508,47.967h1.187l1.646,7.573h0.024l1.754-7.573h1.439l1.585,7.573h0.025l1.779-7.573h1.16
				l-2.311,8.736h-1.355l-1.657-7.575h-0.024l-1.768,7.575h-1.354L126.508,47.967z"/>
			<path fill="#4E4E4E" d="M138.668,53.968c0,1.706,0.46,2.045,1.234,2.045c0.678,0,1.028-0.544,1.065-1.161h1.088
				c-0.012,1.355-0.846,1.972-2.129,1.972c-1.295,0-2.323-0.386-2.323-3.085c0-1.791,0.205-3.267,2.323-3.267
				c1.742,0,2.177,0.956,2.177,2.977v0.52H138.668z M141.053,53.219c0-1.779-0.497-1.997-1.222-1.997
				c-0.63,0-1.15,0.303-1.163,1.997H141.053z"/>
			<path fill="#4E4E4E" d="M144.826,56.703h-0.991v-8.736h0.991v3.242h0.037c0.339-0.483,0.763-0.737,1.344-0.737
				c1.972,0,2.021,1.754,2.021,3.278c0,2.688-0.994,3.073-1.974,3.073c-0.641,0-1.065-0.277-1.402-0.847h-0.026V56.703z
				 M145.941,56.013c1.245,0,1.245-1.331,1.245-2.251c0-1.633-0.145-2.48-1.209-2.48c-1.103,0-1.151,1.309-1.151,2.119
				C144.826,54.331,144.718,56.013,145.941,56.013z"/>
			<path fill="#4E4E4E" d="M161.705,56.703h-1.04v-8.736h1.803l2.202,7.332h0.024l2.227-7.332h1.839v8.736h-1.114v-7.77h-0.022
				l-2.445,7.77h-1.053l-2.395-7.77h-0.025V56.703z"/>
			<path fill="#4E4E4E" d="M170.454,53.738c0-1.791,0.205-3.267,2.322-3.267s2.324,1.476,2.324,3.267
				c0,2.699-1.03,3.085-2.324,3.085C171.48,56.823,170.454,56.438,170.454,53.738z M174.059,53.315c0-1.671-0.52-2.034-1.282-2.034
				s-1.281,0.363-1.281,2.034c0,1.983,0.253,2.697,1.281,2.697S174.059,55.299,174.059,53.315z"/>
			<path fill="#4E4E4E" d="M177.75,56.703h-0.994v-8.736h0.994v3.242h0.036c0.339-0.483,0.762-0.737,1.343-0.737
				c1.974,0,2.021,1.754,2.021,3.278c0,2.688-0.991,3.073-1.971,3.073c-0.644,0-1.065-0.277-1.404-0.847h-0.024V56.703z
				 M178.862,56.013c1.246,0,1.246-1.331,1.246-2.251c0-1.633-0.145-2.48-1.21-2.48c-1.102,0-1.148,1.309-1.148,2.119
				C177.75,54.331,177.641,56.013,178.862,56.013z"/>
			<path fill="#4E4E4E" d="M182.638,47.967h1.113v1.064h-1.113V47.967z M183.69,56.703h-0.992v-6.11h0.992V56.703z"/>
			<path fill="#4E4E4E" d="M186.376,56.703h-0.993v-8.736h0.993V56.703z"/>
			<path fill="#4E4E4E" d="M189.063,53.968c0,1.706,0.459,2.045,1.233,2.045c0.676,0,1.027-0.544,1.063-1.161h1.09
				c-0.011,1.355-0.848,1.972-2.131,1.972c-1.293,0-2.322-0.386-2.322-3.085c0-1.791,0.205-3.267,2.322-3.267
				c1.742,0,2.179,0.956,2.179,2.977v0.52H189.063z M191.445,53.219c0-1.779-0.496-1.997-1.222-1.997
				c-0.629,0-1.15,0.303-1.16,1.997H191.445z"/>
		</g>
		<circle fill="#B92227" cx="121.067" cy="53.494" r="1.134"/>
		<circle fill="#B92227" cx="153.821" cy="53.494" r="1.133"/>
	</g>
</g>
</svg>
